<svg width="20" height="20" viewBox="0 0 20 20" fill="none" xmlns="http://www.w3.org/2000/svg">
<path fill-rule="evenodd" clip-rule="evenodd" d="M10 20C15.5228 20 20 15.5228 20 10C20 4.47715 15.5228 0 10 0C4.47715 0 0 4.47715 0 10C0 15.5228 4.47715 20 10 20ZM4.375 5H11.4888C14.0235 5 16.25 6.57246 16.25 9.91381C16.25 13.2552 14.0235 14.8276 11.4888 14.8276H4.375V5ZM12.872 12.4921L14.2846 10.2379C14.3443 10.1427 14.3759 10.0326 14.3759 9.92022C14.3759 9.80782 14.3443 9.69771 14.2846 9.60254L12.872 7.34835C12.8183 7.2628 12.744 7.19229 12.6558 7.14341C12.5676 7.09453 12.4684 7.0689 12.3676 7.06889H7.09811C6.76912 7.06889 6.5025 7.33624 6.5025 7.66603V12.1744C6.5025 12.5043 6.76916 12.7716 7.09811 12.7716H12.3677C12.4685 12.7716 12.5676 12.7459 12.6558 12.6971C12.744 12.6482 12.8184 12.5777 12.872 12.4921Z" fill="#A32A2F"/>
</svg>
