<svg width="32" height="33" viewBox="0 0 32 33" fill="none" xmlns="http://www.w3.org/2000/svg">
<rect y="0.5" width="32" height="32" rx="8" fill="#F7931A"/>
<path d="M22.9607 14.6385C23.2732 12.6422 21.6838 11.5688 19.5122 10.8526L20.2168 8.14768L18.497 7.73813L17.8103 10.3716C17.3584 10.263 16.8946 10.1621 16.4318 10.0611L17.1235 7.4105L15.4037 7L14.6991 9.70394C14.3249 9.62204 13.9566 9.54203 13.6003 9.45631L13.6023 9.44774L11.2296 8.88105L10.7718 10.6392C10.7718 10.6392 12.0487 10.9192 12.0218 10.9364C12.7185 11.1031 12.8439 11.544 12.823 11.8945L12.0208 14.9756C12.0686 14.9871 12.1303 15.0042 12.2 15.0299L12.0179 14.9871L10.8932 19.3035C10.8076 19.5054 10.5917 19.8092 10.104 19.694C10.1219 19.7178 8.85393 19.3959 8.85393 19.3959L8 21.2798L10.2393 21.8141C10.6553 21.9141 11.0634 22.0188 11.4645 22.1169L10.7529 24.8523L12.4717 25.2619L13.1763 22.557C13.6461 22.6779 14.1019 22.7903 14.5478 22.897L13.8452 25.5905L15.565 26L16.2766 23.2703C19.2106 23.8018 21.4161 23.5875 22.3447 21.0483C23.0931 19.0044 22.3078 17.8244 20.7642 17.0557C21.8888 16.8081 22.7348 16.1005 22.9607 14.6385ZM19.0295 19.913C18.499 21.9579 14.9011 20.8521 13.7347 20.575L14.6802 16.951C15.8466 17.23 19.5858 17.7815 19.0295 19.913ZM19.5619 14.609C19.0772 16.469 16.0835 15.5233 15.1131 15.2918L15.969 12.006C16.9394 12.2374 20.0675 12.6689 19.5619 14.609Z" fill="white"/>
</svg>
