<svg width="16" height="16" viewBox="0 0 16 16" fill="none" xmlns="http://www.w3.org/2000/svg">
<path d="M8.19559 3.52876C8.45594 3.26841 8.87805 3.26841 9.1384 3.52876L13.1384 7.52876C13.2634 7.65378 13.3337 7.82335 13.3337 8.00016C13.3337 8.17697 13.2634 8.34654 13.1384 8.47157L9.1384 12.4716C8.87805 12.7319 8.45594 12.7319 8.19559 12.4716C7.93524 12.2112 7.93524 11.7891 8.19559 11.5288L11.0575 8.66683L3.33366 8.66683C2.96547 8.66683 2.66699 8.36835 2.66699 8.00016C2.66699 7.63197 2.96547 7.3335 3.33366 7.3335L11.0575 7.3335L8.19559 4.47157C7.93524 4.21122 7.93524 3.78911 8.19559 3.52876Z" fill="#3D3D3D"/>
</svg>
