<svg width="48" height="48" viewBox="0 0 48 48" fill="none" xmlns="http://www.w3.org/2000/svg">
<circle cx="24" cy="24" r="24" fill="#A32A2F"/>
<path d="M27.7777 15H14V33H27.7787C32.6875 33 37 30.1199 37 24C37 17.8801 32.6865 15 27.7777 15ZM33.1925 24.5935L30.457 28.7221C30.353 28.8787 30.2089 29.0077 30.038 29.0971C29.8671 29.1865 29.6751 29.2333 29.48 29.2332H19.274C18.9681 29.2332 18.6747 29.118 18.4583 28.9129C18.242 28.7078 18.1205 28.4296 18.1205 28.1395V19.8831C18.1205 19.593 18.242 19.3148 18.4583 19.1097C18.6746 18.9045 18.968 18.7892 19.274 18.7892H29.48C29.6751 18.7891 29.8671 18.8359 30.0379 18.9253C30.2088 19.0147 30.353 19.1437 30.457 19.3002L33.1925 23.4299C33.3079 23.6042 33.3691 23.8058 33.3691 24.0117C33.3691 24.2175 33.3079 24.4191 33.1925 24.5935Z" fill="white"/>
</svg>
